<?xml version="1.0" standalone="no"?>
<!DOCTYPE svg PUBLIC "-//W3C//DTD SVG 20010904//EN"
 "http://www.w3.org/TR/2001/REC-SVG-20010904/DTD/svg10.dtd">
<svg version="1.0" xmlns="http://www.w3.org/2000/svg"
 width="279.000000pt" height="279.000000pt" viewBox="0 0 279.000000 279.000000"
 preserveAspectRatio="xMidYMid meet">
<metadata>
Created by potrace 1.11, written by Peter Selinger 2001-2013
</metadata>
<g transform="translate(0.000000,279.000000) scale(0.100000,-0.100000)"
fill="#000000" stroke="none">
<path d="M1340 2750 c0 -29 -48 -35 -75 -10 -19 18 -26 19 -48 9 -14 -6 -27
-21 -29 -33 -4 -26 -65 -47 -78 -26 -7 12 -14 12 -44 -2 -27 -13 -33 -21 -29
-37 7 -28 -33 -62 -67 -56 -16 3 -34 -3 -49 -16 -22 -18 -23 -23 -12 -41 10
-17 10 -23 -4 -38 -10 -11 -28 -20 -42 -22 -32 -4 -65 -54 -44 -67 21 -13 2
-75 -24 -80 -41 -8 -59 -62 -27 -82 25 -16 17 -75 -13 -95 -17 -11 -23 -23
-21 -47 1 -17 9 -33 17 -35 13 -5 29 -21 29 -32 0 -3 -26 -18 -58 -35 -67 -34
-160 -124 -185 -178 -10 -20 -20 -61 -22 -90 -3 -44 1 -64 26 -112 16 -33 34
-62 39 -65 7 -4 126 -207 280 -475 9 -16 63 -110 120 -208 l102 -179 2 -278
c1 -260 2 -279 20 -299 61 -67 177 -98 341 -90 77 4 186 52 219 96 18 24 19
46 19 297 l-1 271 97 170 c52 94 99 172 103 173 5 2 8 8 8 12 0 5 29 59 65
121 36 61 65 113 65 115 0 1 22 39 50 83 27 45 49 84 50 86 0 11 35 61 68 99
75 85 93 186 47 276 -14 27 -35 59 -48 72 -48 46 -87 78 -119 96 -84 46 -88
50 -84 104 2 32 9 55 19 63 16 12 21 74 5 76 -4 1 -13 2 -20 3 -20 2 -34 65
-19 88 18 29 -4 80 -32 76 -29 -4 -65 57 -49 82 9 15 6 24 -13 46 -20 23 -26
25 -39 15 -12 -10 -22 -6 -56 25 -27 25 -40 44 -37 55 4 16 -10 36 -40 53 -6
3 -18 0 -26 -8 -22 -23 -77 0 -84 35 -6 33 -61 50 -76 24 -13 -24 -65 -18 -91
9 -27 30 -86 34 -86 6z"/>
</g>
</svg>
